<svg width="1200" height="675" viewBox="0 0 1200 675" fill="none" xmlns="http://www.w3.org/2000/svg">
  <defs>
    <linearGradient id="bg" x1="0" y1="0" x2="1" y2="1">
      <stop offset="0" stop-color="#0f172a"/>
      <stop offset="1" stop-color="#111827"/>
    </linearGradient>
    <linearGradient id="accent" x1="0" y1="0" x2="1" y2="1">
      <stop offset="0" stop-color="#7dd3fc"/>
      <stop offset="1" stop-color="#ff7bd7"/>
    </linearGradient>
  </defs>
  <rect width="1200" height="675" rx="28" fill="url(#bg)"/>
  <rect x="48" y="56" width="1104" height="563" rx="20" fill="#0b1021" stroke="#1f2842"/>
  <rect x="48" y="56" width="1104" height="64" rx="20" fill="#0c1226"/>
  <circle cx="92" cy="88" r="8" fill="#ff5f56"/>
  <circle cx="120" cy="88" r="8" fill="#ffbd2e"/>
  <circle cx="148" cy="88" r="8" fill="#27c93f"/>
  <text x="180" y="95" font-family="Inter, Arial" font-size="18" fill="#94a3b8">Code By Fang · Editor</text>
  <rect x="88" y="160" width="420" height="16" rx="8" fill="#1f2937"/>
  <rect x="88" y="192" width="520" height="16" rx="8" fill="#111827"/>
  <rect x="88" y="224" width="360" height="16" rx="8" fill="#1f2937"/>
  <rect x="88" y="256" width="610" height="16" rx="8" fill="#111827"/>
  <rect x="88" y="288" width="420" height="16" rx="8" fill="#1f2937"/>
  <rect x="88" y="320" width="560" height="16" rx="8" fill="#111827"/>
  <rect x="88" y="352" width="300" height="16" rx="8" fill="#1f2937"/>
  <rect x="88" y="384" width="520" height="16" rx="8" fill="#111827"/>
  <rect x="88" y="416" width="460" height="16" rx="8" fill="#1f2937"/>
  <rect x="88" y="448" width="540" height="16" rx="8" fill="#111827"/>
  <rect x="88" y="480" width="380" height="16" rx="8" fill="#1f2937"/>
  <rect x="88" y="512" width="600" height="16" rx="8" fill="#111827"/>
  <rect x="88" y="544" width="440" height="16" rx="8" fill="#1f2937"/>
  <rect x="760" y="160" width="320" height="360" rx="16" fill="#0f172a" stroke="#1f2842"/>
  <rect x="784" y="190" width="272" height="16" rx="8" fill="#1f2937"/>
  <rect x="784" y="222" width="232" height="16" rx="8" fill="#111827"/>
  <rect x="784" y="254" width="260" height="16" rx="8" fill="#1f2937"/>
  <rect x="784" y="286" width="200" height="16" rx="8" fill="#111827"/>
  <rect x="784" y="318" width="240" height="16" rx="8" fill="#1f2937"/>
  <rect x="784" y="350" width="220" height="16" rx="8" fill="#111827"/>
  <rect x="784" y="382" width="200" height="16" rx="8" fill="#1f2937"/>
  <rect x="784" y="414" width="250" height="16" rx="8" fill="#111827"/>
  <rect x="784" y="446" width="210" height="16" rx="8" fill="#1f2937"/>
  <text x="96" y="610" font-family="Inter, Arial" font-size="18" fill="#cbd5f5">Local multi-agent AI · 100% offline</text>
  <rect x="948" y="588" width="164" height="48" rx="24" fill="url(#accent)"/>
  <text x="982" y="620" font-family="Inter, Arial" font-size="18" fill="#0b1021">Launch</text>
</svg>
