<svg width="1200" height="675" viewBox="0 0 1200 675" fill="none" xmlns="http://www.w3.org/2000/svg">
  <defs>
    <linearGradient id="bg" x1="0" y1="0" x2="1" y2="1">
      <stop offset="0" stop-color="#0b1021"/>
      <stop offset="1" stop-color="#111827"/>
    </linearGradient>
    <linearGradient id="accent" x1="0" y1="0" x2="1" y2="1">
      <stop offset="0" stop-color="#7dd3fc"/>
      <stop offset="1" stop-color="#22d3ee"/>
    </linearGradient>
  </defs>
  <rect width="1200" height="675" rx="28" fill="url(#bg)"/>
  <rect x="56" y="70" width="1088" height="535" rx="20" fill="#0f172a" stroke="#1f2842"/>
  <rect x="56" y="70" width="1088" height="70" rx="20" fill="#0c1226"/>
  <text x="96" y="112" font-family="Inter, Arial" font-size="18" fill="#94a3b8">Record · Screen Capture</text>
  <rect x="96" y="180" width="720" height="400" rx="16" fill="#0b1021" stroke="#1f2842"/>
  <rect x="860" y="180" width="240" height="48" rx="24" fill="url(#accent)"/>
  <text x="920" y="212" font-family="Inter, Arial" font-size="18" fill="#0b1021">Start</text>
  <rect x="860" y="244" width="240" height="48" rx="24" fill="#111827" stroke="#1f2842"/>
  <text x="920" y="276" font-family="Inter, Arial" font-size="18" fill="#94a3b8">Stop</text>
  <rect x="880" y="320" width="200" height="12" rx="6" fill="#1f2937"/>
  <rect x="880" y="348" width="180" height="12" rx="6" fill="#111827"/>
  <rect x="880" y="376" width="160" height="12" rx="6" fill="#1f2937"/>
  <rect x="880" y="404" width="190" height="12" rx="6" fill="#111827"/>
  <rect x="880" y="432" width="140" height="12" rx="6" fill="#1f2937"/>
</svg>
