<svg width="1200" height="675" viewBox="0 0 1200 675" fill="none" xmlns="http://www.w3.org/2000/svg">
  <defs>
    <linearGradient id="bg" x1="0" y1="0" x2="1" y2="1">
      <stop offset="0" stop-color="#0b1021"/>
      <stop offset="1" stop-color="#111827"/>
    </linearGradient>
    <linearGradient id="accent" x1="0" y1="0" x2="1" y2="1">
      <stop offset="0" stop-color="#ff7bd7"/>
      <stop offset="1" stop-color="#a78bfa"/>
    </linearGradient>
  </defs>
  <rect width="1200" height="675" rx="28" fill="url(#bg)"/>
  <rect x="56" y="70" width="1088" height="535" rx="20" fill="#0f172a" stroke="#1f2842"/>
  <rect x="56" y="70" width="1088" height="70" rx="20" fill="#0c1226"/>
  <text x="96" y="112" font-family="Inter, Arial" font-size="18" fill="#94a3b8">X Auto Poster · AI Post Studio</text>
  <rect x="96" y="180" width="760" height="120" rx="16" fill="#0b1021" stroke="#1f2842"/>
  <rect x="96" y="320" width="760" height="120" rx="16" fill="#0b1021" stroke="#1f2842"/>
  <rect x="96" y="460" width="760" height="120" rx="16" fill="#0b1021" stroke="#1f2842"/>
  <rect x="900" y="200" width="200" height="48" rx="24" fill="url(#accent)"/>
  <text x="940" y="232" font-family="Inter, Arial" font-size="18" fill="#0b1021">Generate</text>
  <rect x="920" y="270" width="160" height="10" rx="5" fill="#1f2937"/>
  <rect x="920" y="292" width="140" height="10" rx="5" fill="#111827"/>
  <rect x="920" y="314" width="150" height="10" rx="5" fill="#1f2937"/>
</svg>
